<mxfile host="65bd71144e">
    <diagram id="aws-architecture" name="Menkoverse AWS Architecture">
        <mxGraphModel dx="3167" dy="849" grid="1" gridSize="10" guides="1" tooltips="1" connect="1" arrows="1" fold="1" page="1" pageScale="1" pageWidth="1654" pageHeight="1169" math="0" shadow="0">
            <root>
                <mxCell id="0"/>
                <mxCell id="1" parent="0"/>
                <mxCell id="aws-cloud" value="AWS Cloud" style="sketch=0;outlineConnect=0;gradientColor=none;html=1;whiteSpace=wrap;fontSize=12;fontStyle=0;container=1;pointerEvents=0;collapsible=0;recursiveResize=0;shape=mxgraph.aws4.group;grIcon=mxgraph.aws4.group_aws_cloud;strokeColor=#232F3E;fillColor=none;verticalAlign=top;align=left;spacingLeft=30;fontColor=#232F3E;dashed=0;" parent="1" vertex="1">
                    <mxGeometry x="40" y="40" width="1420" height="930" as="geometry"/>
                </mxCell>
                <mxCell id="region-tokyo" value="Asia Pacific (Tokyo) ap-northeast-1" style="sketch=0;outlineConnect=0;gradientColor=none;html=1;whiteSpace=wrap;fontSize=12;fontStyle=0;container=1;pointerEvents=0;collapsible=0;recursiveResize=0;shape=mxgraph.aws4.group;grIcon=mxgraph.aws4.group_region;strokeColor=#FF9900;fillColor=none;verticalAlign=top;align=left;spacingLeft=30;fontColor=#FF9900;dashed=1;" parent="aws-cloud" vertex="1">
                    <mxGeometry x="40" y="40" width="1370" height="880" as="geometry"/>
                </mxCell>
                <mxCell id="vpc" value="VPC (CoreStack)" style="sketch=0;outlineConnect=0;gradientColor=none;html=1;whiteSpace=wrap;fontSize=12;fontStyle=0;container=1;pointerEvents=0;collapsible=0;recursiveResize=0;shape=mxgraph.aws4.group;grIcon=mxgraph.aws4.group_vpc;strokeColor=#8C4FFF;fillColor=none;verticalAlign=top;align=left;spacingLeft=30;fontColor=#8C4FFF;dashed=0;" parent="region-tokyo" vertex="1">
                    <mxGeometry x="40" y="60" width="800" height="520" as="geometry"/>
                </mxCell>
                <mxCell id="az-a" value="Availability Zone A" style="sketch=0;outlineConnect=0;gradientColor=none;html=1;whiteSpace=wrap;fontSize=12;fontStyle=0;container=1;pointerEvents=0;collapsible=0;recursiveResize=0;shape=mxgraph.aws4.group;grIcon=mxgraph.aws4.group_availability_zone;strokeColor=#FF9900;fillColor=none;verticalAlign=top;align=left;spacingLeft=30;fontColor=#FF9900;dashed=1;" parent="vpc" vertex="1">
                    <mxGeometry x="40" y="60" width="340" height="420" as="geometry"/>
                </mxCell>
                <mxCell id="public-subnet-a" value="Public Subnet A" style="sketch=0;outlineConnect=0;gradientColor=none;html=1;whiteSpace=wrap;fontSize=12;fontStyle=0;container=1;pointerEvents=0;collapsible=0;recursiveResize=0;shape=mxgraph.aws4.group;grIcon=mxgraph.aws4.group_security_group;strokeColor=#7AA116;fillColor=none;verticalAlign=top;align=left;spacingLeft=30;fontColor=#7AA116;dashed=0;" parent="az-a" vertex="1">
                    <mxGeometry x="20" y="40" width="300" height="120" as="geometry"/>
                </mxCell>
                <mxCell id="nat-gateway" value="NAT Gateway" style="sketch=0;outlineConnect=0;fontColor=#232F3E;gradientColor=none;strokeColor=#232F3E;fillColor=#8C4FFF;html=1;verticalAlign=top;align=center;verticalLabelPosition=bottom;labelPosition=center;shape=mxgraph.aws4.nat_gateway;" parent="public-subnet-a" vertex="1">
                    <mxGeometry x="120" y="30" width="60" height="60" as="geometry"/>
                </mxCell>
                <mxCell id="private-subnet-a" value="Private Subnet A" style="sketch=0;outlineConnect=0;gradientColor=none;html=1;whiteSpace=wrap;fontSize=12;fontStyle=0;container=1;pointerEvents=0;collapsible=0;recursiveResize=0;shape=mxgraph.aws4.group;grIcon=mxgraph.aws4.group_security_group;strokeColor=#7AA116;fillColor=none;verticalAlign=top;align=left;spacingLeft=30;fontColor=#7AA116;dashed=0;" parent="az-a" vertex="1">
                    <mxGeometry x="20" y="180" width="300" height="220" as="geometry"/>
                </mxCell>
                <mxCell id="3" value="&lt;span style=&quot;color: rgb(35, 47, 62);&quot;&gt;Aurora PostgreSQL&lt;/span&gt;&lt;br&gt;&lt;span style=&quot;color: rgb(35, 47, 62);&quot;&gt;(Primary)&lt;/span&gt;" style="sketch=0;points=[[0,0,0],[0.25,0,0],[0.5,0,0],[0.75,0,0],[1,0,0],[0,1,0],[0.25,1,0],[0.5,1,0],[0.75,1,0],[1,1,0],[0,0.25,0],[0,0.5,0],[0,0.75,0],[1,0.25,0],[1,0.5,0],[1,0.75,0]];outlineConnect=0;fontColor=#232F3E;fillColor=#C925D1;strokeColor=#ffffff;dashed=0;verticalLabelPosition=bottom;verticalAlign=top;align=center;html=1;fontSize=12;fontStyle=0;aspect=fixed;shape=mxgraph.aws4.resourceIcon;resIcon=mxgraph.aws4.aurora;" vertex="1" parent="private-subnet-a">
                    <mxGeometry x="120" y="80" width="60" height="60" as="geometry"/>
                </mxCell>
                <mxCell id="az-b" value="Availability Zone B" style="sketch=0;outlineConnect=0;gradientColor=none;html=1;whiteSpace=wrap;fontSize=12;fontStyle=0;container=1;pointerEvents=0;collapsible=0;recursiveResize=0;shape=mxgraph.aws4.group;grIcon=mxgraph.aws4.group_availability_zone;strokeColor=#FF9900;fillColor=none;verticalAlign=top;align=left;spacingLeft=30;fontColor=#FF9900;dashed=1;" parent="vpc" vertex="1">
                    <mxGeometry x="420" y="60" width="340" height="420" as="geometry"/>
                </mxCell>
                <mxCell id="public-subnet-b" value="Public Subnet B" style="sketch=0;outlineConnect=0;gradientColor=none;html=1;whiteSpace=wrap;fontSize=12;fontStyle=0;container=1;pointerEvents=0;collapsible=0;recursiveResize=0;shape=mxgraph.aws4.group;grIcon=mxgraph.aws4.group_security_group;strokeColor=#7AA116;fillColor=none;verticalAlign=top;align=left;spacingLeft=30;fontColor=#7AA116;dashed=0;" parent="az-b" vertex="1">
                    <mxGeometry x="20" y="40" width="300" height="120" as="geometry"/>
                </mxCell>
                <mxCell id="igw" value="Internet Gateway" style="sketch=0;outlineConnect=0;fontColor=#232F3E;gradientColor=none;strokeColor=#232F3E;fillColor=#8C4FFF;html=1;verticalAlign=top;align=center;verticalLabelPosition=bottom;labelPosition=center;shape=mxgraph.aws4.internet_gateway;" parent="public-subnet-b" vertex="1">
                    <mxGeometry x="130" y="30" width="60" height="60" as="geometry"/>
                </mxCell>
                <mxCell id="private-subnet-b" value="Private Subnet B" style="sketch=0;outlineConnect=0;gradientColor=none;html=1;whiteSpace=wrap;fontSize=12;fontStyle=0;container=1;pointerEvents=0;collapsible=0;recursiveResize=0;shape=mxgraph.aws4.group;grIcon=mxgraph.aws4.group_security_group;strokeColor=#7AA116;fillColor=none;verticalAlign=top;align=left;spacingLeft=30;fontColor=#7AA116;dashed=0;" parent="az-b" vertex="1">
                    <mxGeometry x="20" y="180" width="300" height="220" as="geometry"/>
                </mxCell>
                <mxCell id="4" value="&lt;span style=&quot;color: rgb(35, 47, 62);&quot;&gt;Aurora PostgreSQL&lt;/span&gt;&lt;br&gt;&lt;span style=&quot;color: rgb(35, 47, 62);&quot;&gt;(Replica)&lt;/span&gt;" style="sketch=0;points=[[0,0,0],[0.25,0,0],[0.5,0,0],[0.75,0,0],[1,0,0],[0,1,0],[0.25,1,0],[0.5,1,0],[0.75,1,0],[1,1,0],[0,0.25,0],[0,0.5,0],[0,0.75,0],[1,0.25,0],[1,0.5,0],[1,0.75,0]];outlineConnect=0;fontColor=#232F3E;fillColor=#C925D1;strokeColor=#ffffff;dashed=0;verticalLabelPosition=bottom;verticalAlign=top;align=center;html=1;fontSize=12;fontStyle=0;aspect=fixed;shape=mxgraph.aws4.resourceIcon;resIcon=mxgraph.aws4.aurora;" vertex="1" parent="private-subnet-b">
                    <mxGeometry x="120" y="80" width="60" height="60" as="geometry"/>
                </mxCell>
                <mxCell id="cognito-group" value="AuthStack" style="sketch=0;outlineConnect=0;gradientColor=none;html=1;whiteSpace=wrap;fontSize=12;fontStyle=0;container=1;pointerEvents=0;collapsible=0;recursiveResize=0;shape=mxgraph.aws4.group;grIcon=mxgraph.aws4.group_corporate_data_center;strokeColor=#232F3E;fillColor=none;verticalAlign=top;align=left;spacingLeft=30;fontColor=#232F3E;dashed=0;" parent="region-tokyo" vertex="1">
                    <mxGeometry x="880" y="60" width="280" height="200" as="geometry"/>
                </mxCell>
                <mxCell id="cognito-user-pool" value="Cognito User Pool" style="sketch=0;outlineConnect=0;fontColor=#232F3E;gradientColor=none;strokeColor=#232F3E;fillColor=#DD344C;html=1;verticalAlign=top;align=center;verticalLabelPosition=bottom;labelPosition=center;shape=mxgraph.aws4.cognito;" parent="cognito-group" vertex="1">
                    <mxGeometry x="40" y="60" width="60" height="60" as="geometry"/>
                </mxCell>
                <mxCell id="cognito-identity-pool" value="Cognito Identity Pool" style="sketch=0;outlineConnect=0;fontColor=#232F3E;gradientColor=none;strokeColor=#232F3E;fillColor=#DD344C;html=1;verticalAlign=top;align=center;verticalLabelPosition=bottom;labelPosition=center;shape=mxgraph.aws4.cognito;" parent="cognito-group" vertex="1">
                    <mxGeometry x="160" y="60" width="60" height="60" as="geometry"/>
                </mxCell>
                <mxCell id="realtime-group" value="RealtimeStack" style="sketch=0;outlineConnect=0;gradientColor=none;html=1;whiteSpace=wrap;fontSize=12;fontStyle=0;container=1;pointerEvents=0;collapsible=0;recursiveResize=0;shape=mxgraph.aws4.group;grIcon=mxgraph.aws4.group_corporate_data_center;strokeColor=#232F3E;fillColor=none;verticalAlign=top;align=left;spacingLeft=30;fontColor=#232F3E;dashed=0;" parent="region-tokyo" vertex="1">
                    <mxGeometry x="880" y="300" width="320" height="280" as="geometry"/>
                </mxCell>
                <mxCell id="api-gateway-websocket" value="API Gateway&#xa;WebSocket" style="sketch=0;outlineConnect=0;fontColor=#232F3E;gradientColor=none;strokeColor=#232F3E;fillColor=#FF4F8B;html=1;verticalAlign=top;align=center;verticalLabelPosition=bottom;labelPosition=center;shape=mxgraph.aws4.api_gateway;" parent="realtime-group" vertex="1">
                    <mxGeometry x="60" y="60" width="60" height="60" as="geometry"/>
                </mxCell>
                <mxCell id="websocket-handler" value="WebSocket Handler" style="sketch=0;outlineConnect=0;fontColor=#232F3E;gradientColor=none;strokeColor=#232F3E;fillColor=#FF9900;html=1;verticalAlign=top;align=center;verticalLabelPosition=bottom;labelPosition=center;shape=mxgraph.aws4.lambda;" parent="realtime-group" vertex="1">
                    <mxGeometry x="200" y="60" width="60" height="60" as="geometry"/>
                </mxCell>
                <mxCell id="dynamodb-table" value="DynamoDB&#xa;Game Table" style="sketch=0;outlineConnect=0;fontColor=#232F3E;gradientColor=none;strokeColor=#232F3E;fillColor=#C925D1;html=1;verticalAlign=top;align=center;verticalLabelPosition=bottom;labelPosition=center;shape=mxgraph.aws4.dynamodb;" parent="realtime-group" vertex="1">
                    <mxGeometry x="60" y="175" width="60" height="60" as="geometry"/>
                </mxCell>
                <mxCell id="stream-processor" value="Stream Processor" style="sketch=0;outlineConnect=0;fontColor=#232F3E;gradientColor=none;strokeColor=#232F3E;fillColor=#FF9900;html=1;verticalAlign=top;align=center;verticalLabelPosition=bottom;labelPosition=center;shape=mxgraph.aws4.lambda;" parent="realtime-group" vertex="1">
                    <mxGeometry x="200" y="175" width="60" height="60" as="geometry"/>
                </mxCell>
                <mxCell id="stream-to-lambda" value="" style="endArrow=classic;html=1;strokeColor=#FF9900;strokeWidth=2;" parent="realtime-group" edge="1" target="stream-processor" source="dynamodb-table">
                    <mxGeometry width="50" height="50" relative="1" as="geometry">
                        <mxPoint x="220" y="209.16999999999996" as="sourcePoint"/>
                        <mxPoint x="370" y="209.16999999999996" as="targetPoint"/>
                    </mxGeometry>
                </mxCell>
                <mxCell id="2" value="" style="endArrow=classic;html=1;strokeColor=#FF9900;strokeWidth=2;" edge="1" parent="realtime-group" source="api-gateway-websocket" target="websocket-handler">
                    <mxGeometry width="50" height="50" relative="1" as="geometry">
                        <mxPoint x="110" y="100" as="sourcePoint"/>
                        <mxPoint x="235" y="100" as="targetPoint"/>
                    </mxGeometry>
                </mxCell>
                <mxCell id="app-runner-group" value="App Runner Services" style="sketch=0;outlineConnect=0;gradientColor=none;html=1;whiteSpace=wrap;fontSize=12;fontStyle=0;container=1;pointerEvents=0;collapsible=0;recursiveResize=0;shape=mxgraph.aws4.group;grIcon=mxgraph.aws4.group_corporate_data_center;strokeColor=#232F3E;fillColor=none;verticalAlign=top;align=left;spacingLeft=30;fontColor=#232F3E;dashed=0;" parent="region-tokyo" vertex="1">
                    <mxGeometry x="40" y="640" width="320" height="200" as="geometry"/>
                </mxCell>
                <mxCell id="app-runner-main" value="App Runner&#xa;(Next.js App)" style="sketch=0;outlineConnect=0;fontColor=#232F3E;gradientColor=none;strokeColor=#232F3E;fillColor=#FF9900;html=1;verticalAlign=top;align=center;verticalLabelPosition=bottom;labelPosition=center;shape=mxgraph.aws4.app_runner;" parent="app-runner-group" vertex="1">
                    <mxGeometry x="50" y="70" width="60" height="60" as="geometry"/>
                </mxCell>
                <mxCell id="app-runner-opencv" value="App Runner&#xa;(OpenCV API)" style="sketch=0;outlineConnect=0;fontColor=#232F3E;gradientColor=none;strokeColor=#232F3E;fillColor=#FF9900;html=1;verticalAlign=top;align=center;verticalLabelPosition=bottom;labelPosition=center;shape=mxgraph.aws4.app_runner;" parent="app-runner-group" vertex="1">
                    <mxGeometry x="170" y="70" width="60" height="60" as="geometry"/>
                </mxCell>
                <mxCell id="other-services" value="Other Services" style="sketch=0;outlineConnect=0;gradientColor=none;html=1;whiteSpace=wrap;fontSize=12;fontStyle=0;container=1;pointerEvents=0;collapsible=0;recursiveResize=0;shape=mxgraph.aws4.group;grIcon=mxgraph.aws4.group_corporate_data_center;strokeColor=#232F3E;fillColor=none;verticalAlign=top;align=left;spacingLeft=30;fontColor=#232F3E;dashed=0;" parent="region-tokyo" vertex="1">
                    <mxGeometry x="880" y="640" width="450" height="200" as="geometry"/>
                </mxCell>
                <mxCell id="secrets-manager" value="Secrets Manager" style="sketch=0;outlineConnect=0;fontColor=#232F3E;gradientColor=none;strokeColor=#232F3E;fillColor=#DD344C;html=1;verticalAlign=top;align=center;verticalLabelPosition=bottom;labelPosition=center;shape=mxgraph.aws4.secrets_manager;" parent="other-services" vertex="1">
                    <mxGeometry x="60" y="80" width="60" height="60" as="geometry"/>
                </mxCell>
                <mxCell id="cloudwatch" value="CloudWatch" style="sketch=0;outlineConnect=0;fontColor=#232F3E;gradientColor=none;strokeColor=#232F3E;fillColor=#759C3E;html=1;verticalAlign=top;align=center;verticalLabelPosition=bottom;labelPosition=center;shape=mxgraph.aws4.cloudwatch;" parent="other-services" vertex="1">
                    <mxGeometry x="200" y="80" width="60" height="60" as="geometry"/>
                </mxCell>
                <mxCell id="budgets" value="AWS Budgets" style="sketch=0;outlineConnect=0;fontColor=#232F3E;gradientColor=none;strokeColor=#232F3E;fillColor=#759C3E;html=1;verticalAlign=top;align=center;verticalLabelPosition=bottom;labelPosition=center;shape=mxgraph.aws4.budgets;" parent="other-services" vertex="1">
                    <mxGeometry x="340" y="80" width="60" height="60" as="geometry"/>
                </mxCell>
                <mxCell id="external-services" value="External Services" style="sketch=0;outlineConnect=0;gradientColor=none;html=1;whiteSpace=wrap;fontSize=12;fontStyle=0;container=1;pointerEvents=0;collapsible=0;recursiveResize=0;shape=mxgraph.aws4.group;grIcon=mxgraph.aws4.group_corporate_data_center;strokeColor=#232F3E;fillColor=none;verticalAlign=top;align=left;spacingLeft=30;fontColor=#232F3E;dashed=0;" parent="1" vertex="1">
                    <mxGeometry x="-210" y="720" width="200" height="210" as="geometry"/>
                </mxCell>
                <mxCell id="7" value="GitHub" style="dashed=0;outlineConnect=0;html=1;align=center;labelPosition=center;verticalLabelPosition=bottom;verticalAlign=top;shape=mxgraph.weblogos.github" vertex="1" parent="external-services">
                    <mxGeometry x="62.5" y="70" width="75" height="75" as="geometry"/>
                </mxCell>
                <mxCell id="title" value="Menkoverse Architechure (CDK Based)" style="text;html=1;strokeColor=none;fillColor=none;align=center;verticalAlign=middle;whiteSpace=wrap;rounded=0;fontSize=16;fontStyle=1;fontColor=#232F3E;" parent="1" vertex="1">
                    <mxGeometry x="700" y="10" width="400" height="30" as="geometry"/>
                </mxCell>
                <mxCell id="8" style="edgeStyle=none;html=1;" edge="1" parent="1" source="7" target="app-runner-group">
                    <mxGeometry relative="1" as="geometry"/>
                </mxCell>
                <mxCell id="9" value="push repo" style="edgeLabel;html=1;align=center;verticalAlign=middle;resizable=0;points=[];" vertex="1" connectable="0" parent="8">
                    <mxGeometry x="-0.0566" y="3" relative="1" as="geometry">
                        <mxPoint as="offset"/>
                    </mxGeometry>
                </mxCell>
            </root>
        </mxGraphModel>
    </diagram>
</mxfile>